<?xml version="1.0" encoding="utf-8"?>
<!-- Generator: Adobe Illustrator 25.2.3, SVG Export Plug-In . SVG Version: 6.00 Build 0)  -->
<svg version="1.1" id="Layer_1" xmlns="http://www.w3.org/2000/svg" xmlns:xlink="http://www.w3.org/1999/xlink" x="0px" y="0px"
	 viewBox="0 0 40.21 32" style="enable-background:new 0 0 40.21 32;" xml:space="preserve">
<style type="text/css">
	.st0{fill:#DD1B22;}
</style>
<g>
	<path class="st0" d="M25.93,21.71H4.49c-0.35,0-0.66-0.24-0.74-0.59L0.02,5.28c-0.1-0.41,0.16-0.82,0.57-0.92s0.82,0.16,0.92,0.57
		L5.1,20.19h20.83c0.42,0,0.76,0.34,0.76,0.76S26.35,21.71,25.93,21.71z"/>
	<path class="st0" d="M25.25,25.73c-0.08,0-0.15-0.01-0.23-0.04c-0.4-0.13-0.63-0.56-0.5-0.96l7.63-24.2C32.25,0.22,32.55,0,32.88,0
		h6.57c0.42,0,0.76,0.34,0.76,0.76s-0.34,0.76-0.76,0.76h-6.01l-7.46,23.67C25.88,25.52,25.58,25.73,25.25,25.73z"/>
	<path class="st0" d="M23.92,32c-1.92,0-3.49-1.61-3.49-3.59s1.56-3.59,3.49-3.59s3.49,1.61,3.49,3.59S25.84,32,23.92,32z
		 M23.92,26.35c-1.08,0-1.96,0.92-1.96,2.06s0.88,2.06,1.96,2.06s1.96-0.92,1.96-2.06C25.88,27.28,25,26.35,23.92,26.35z"/>
	<path class="st0" d="M7.15,32c-1.92,0-3.49-1.61-3.49-3.59s1.56-3.59,3.49-3.59s3.49,1.61,3.49,3.59S9.08,32,7.15,32z M7.15,26.35
		c-1.08,0-1.96,0.92-1.96,2.06s0.88,2.06,1.96,2.06s1.96-0.92,1.96-2.06C9.11,27.28,8.23,26.35,7.15,26.35z"/>
	<path class="st0" d="M20.7,29.18H10.37c-0.42,0-0.76-0.34-0.76-0.76s0.34-0.76,0.76-0.76H20.7c0.42,0,0.76,0.34,0.76,0.76
		S21.12,29.18,20.7,29.18z"/>
	<path class="st0" d="M29.3,10.49H7.15c-0.42,0-0.76-0.34-0.76-0.76s0.34-0.76,0.76-0.76H29.3c0.42,0,0.76,0.34,0.76,0.76
		S29.72,10.49,29.3,10.49z"/>
	<path class="st0" d="M27.54,16.38H7.89c-0.42,0-0.76-0.34-0.76-0.76s0.34-0.76,0.76-0.76h19.65c0.42,0,0.76,0.34,0.76,0.76
		C28.3,16.04,27.96,16.38,27.54,16.38z"/>
</g>
</svg>
